<svg xmlns="http://www.w3.org/2000/svg" xmlns:xlink="http://www.w3.org/1999/xlink" width="340" zoomAndPan="magnify" viewBox="0 0 255 86.249997" height="115" preserveAspectRatio="xMidYMid meet" version="1.0"><defs><g/><clipPath id="6f3a40628d"><path d="M 79.488281 4.171875 L 152.464844 4.171875 L 152.464844 81.789062 L 79.488281 81.789062 Z M 79.488281 4.171875 " clip-rule="nonzero"/></clipPath><clipPath id="d8416d4ba9"><path d="M 151.722656 4.171875 L 200.484375 4.171875 L 200.484375 81.789062 L 151.722656 81.789062 Z M 151.722656 4.171875 " clip-rule="nonzero"/></clipPath><clipPath id="ed2285e31d"><path d="M 151.722656 4.171875 L 249.796875 4.171875 L 249.796875 82 L 151.722656 82 Z M 151.722656 4.171875 " clip-rule="nonzero"/></clipPath><clipPath id="f0df57f9d7"><path d="M 166.59375 4.171875 L 234.378906 4.171875 C 242.59375 4.171875 249.25 10.832031 249.25 19.042969 L 249.25 66.917969 C 249.25 75.132812 242.59375 81.789062 234.378906 81.789062 L 166.59375 81.789062 C 158.378906 81.789062 151.722656 75.132812 151.722656 66.917969 L 151.722656 19.042969 C 151.722656 10.832031 158.378906 4.171875 166.59375 4.171875 " clip-rule="nonzero"/></clipPath><clipPath id="3816c97fdf"><path d="M 5.765625 4.171875 L 152 4.171875 L 152 82 L 5.765625 82 Z M 5.765625 4.171875 " clip-rule="nonzero"/></clipPath><clipPath id="b0014c8f91"><path d="M 20.636719 4.171875 L 136.851562 4.171875 C 145.0625 4.171875 151.722656 10.832031 151.722656 19.042969 L 151.722656 66.917969 C 151.722656 75.132812 145.0625 81.789062 136.851562 81.789062 L 20.636719 81.789062 C 12.421875 81.789062 5.765625 75.132812 5.765625 66.917969 L 5.765625 19.042969 C 5.765625 10.832031 12.421875 4.171875 20.636719 4.171875 " clip-rule="nonzero"/></clipPath></defs><g clip-path="url(#6f3a40628d)"><path fill="#0b0f8f" d="M 79.488281 4.171875 L 153.042969 4.171875 L 153.042969 81.40625 L 79.488281 81.40625 Z M 79.488281 4.171875 " fill-opacity="1" fill-rule="nonzero"/></g><g clip-path="url(#d8416d4ba9)"><path fill="#ffffff" d="M 151.722656 4.171875 L 200.757812 4.171875 L 200.757812 81.40625 L 151.722656 81.40625 Z M 151.722656 4.171875 " fill-opacity="1" fill-rule="nonzero"/></g><g clip-path="url(#ed2285e31d)"><g clip-path="url(#f0df57f9d7)"><path fill="#ffffff" d="M 151.722656 4.171875 L 249.796875 4.171875 L 249.796875 81.40625 L 151.722656 81.40625 Z M 151.722656 4.171875 " fill-opacity="1" fill-rule="nonzero"/></g></g><g clip-path="url(#3816c97fdf)"><g clip-path="url(#b0014c8f91)"><path fill="#0b0f8f" d="M 5.765625 4.171875 L 151.652344 4.171875 L 151.652344 81.40625 L 5.765625 81.40625 Z M 5.765625 4.171875 " fill-opacity="1" fill-rule="nonzero"/></g></g><g fill="#ffffff" fill-opacity="1"><g transform="translate(6.922819, 58.933221)"><g><path d="M 16.828125 0.78125 C 12.972656 0.78125 9.765625 -0.191406 7.203125 -2.140625 C 4.648438 -4.085938 3.160156 -6.734375 2.734375 -10.078125 L 8.3125 -10.078125 C 8.664062 -8.378906 9.566406 -6.910156 11.015625 -5.671875 C 12.460938 -4.441406 14.421875 -3.828125 16.890625 -3.828125 C 19.191406 -3.828125 20.882812 -4.316406 21.96875 -5.296875 C 23.050781 -6.273438 23.59375 -7.429688 23.59375 -8.765625 C 23.59375 -10.722656 22.882812 -12.023438 21.46875 -12.671875 C 20.0625 -13.316406 18.082031 -13.898438 15.53125 -14.421875 C 13.800781 -14.773438 12.066406 -15.273438 10.328125 -15.921875 C 8.597656 -16.566406 7.144531 -17.484375 5.96875 -18.671875 C 4.800781 -19.867188 4.21875 -21.441406 4.21875 -23.390625 C 4.21875 -26.210938 5.269531 -28.519531 7.375 -30.3125 C 9.476562 -32.113281 12.328125 -33.015625 15.921875 -33.015625 C 19.347656 -33.015625 22.15625 -32.15625 24.34375 -30.4375 C 26.53125 -28.726562 27.796875 -26.296875 28.140625 -23.140625 L 22.75 -23.140625 C 22.53125 -24.785156 21.820312 -26.070312 20.625 -27 C 19.4375 -27.925781 17.847656 -28.390625 15.859375 -28.390625 C 13.910156 -28.390625 12.40625 -27.976562 11.34375 -27.15625 C 10.28125 -26.332031 9.75 -25.253906 9.75 -23.921875 C 9.75 -22.617188 10.429688 -21.597656 11.796875 -20.859375 C 13.160156 -20.117188 15.007812 -19.488281 17.34375 -18.96875 C 19.34375 -18.539062 21.238281 -18.007812 23.03125 -17.375 C 24.832031 -16.75 26.304688 -15.816406 27.453125 -14.578125 C 28.597656 -13.347656 29.171875 -11.566406 29.171875 -9.234375 C 29.222656 -6.328125 28.128906 -3.929688 25.890625 -2.046875 C 23.660156 -0.160156 20.640625 0.78125 16.828125 0.78125 Z M 16.828125 0.78125 "/></g></g></g><g fill="#ffffff" fill-opacity="1"><g transform="translate(39.405956, 58.933221)"><g><path d="M 8 14.296875 L 15.984375 -3.125 L 14.109375 -3.125 L 1.296875 -32.234375 L 7.21875 -32.234375 L 17.875 -7.140625 L 29.171875 -32.234375 L 34.828125 -32.234375 L 13.71875 14.296875 Z M 8 14.296875 "/></g></g></g><g fill="#ffffff" fill-opacity="1"><g transform="translate(75.527201, 58.933221)"><g><path d="M 19.109375 0.78125 C 15.898438 0.78125 13.09375 0.046875 10.6875 -1.421875 C 8.28125 -2.898438 6.414062 -4.914062 5.09375 -7.46875 C 3.78125 -10.03125 3.125 -12.9375 3.125 -16.1875 C 3.125 -19.4375 3.789062 -22.328125 5.125 -24.859375 C 6.46875 -27.390625 8.332031 -29.378906 10.71875 -30.828125 C 13.101562 -32.285156 15.921875 -33.015625 19.171875 -33.015625 C 21.816406 -33.015625 24.15625 -32.472656 26.1875 -31.390625 C 28.226562 -30.304688 29.8125 -28.789062 30.9375 -26.84375 L 30.9375 -46.78125 L 36.390625 -46.78125 L 36.390625 0 L 31.453125 0 L 30.9375 -5.328125 C 29.894531 -3.765625 28.398438 -2.351562 26.453125 -1.09375 C 24.503906 0.15625 22.054688 0.78125 19.109375 0.78125 Z M 19.6875 -3.96875 C 21.851562 -3.96875 23.769531 -4.472656 25.4375 -5.484375 C 27.101562 -6.503906 28.398438 -7.925781 29.328125 -9.75 C 30.265625 -11.570312 30.734375 -13.691406 30.734375 -16.109375 C 30.734375 -18.535156 30.265625 -20.660156 29.328125 -22.484375 C 28.398438 -24.304688 27.101562 -25.722656 25.4375 -26.734375 C 23.769531 -27.753906 21.851562 -28.265625 19.6875 -28.265625 C 17.5625 -28.265625 15.664062 -27.753906 14 -26.734375 C 12.332031 -25.722656 11.03125 -24.304688 10.09375 -22.484375 C 9.164062 -20.660156 8.703125 -18.535156 8.703125 -16.109375 C 8.703125 -13.691406 9.164062 -11.570312 10.09375 -9.75 C 11.03125 -7.925781 12.332031 -6.503906 14 -5.484375 C 15.664062 -4.472656 17.5625 -3.96875 19.6875 -3.96875 Z M 19.6875 -3.96875 "/></g></g></g><g fill="#ffffff" fill-opacity="1"><g transform="translate(116.32602, 58.933221)"><g><path d="M 15.203125 0.78125 C 12.515625 0.78125 10.28125 0.328125 8.5 -0.578125 C 6.726562 -1.492188 5.410156 -2.707031 4.546875 -4.21875 C 3.679688 -5.738281 3.25 -7.382812 3.25 -9.15625 C 3.25 -12.457031 4.503906 -14.992188 7.015625 -16.765625 C 9.523438 -18.546875 12.945312 -19.4375 17.28125 -19.4375 L 26 -19.4375 L 26 -19.8125 C 26 -22.632812 25.257812 -24.769531 23.78125 -26.21875 C 22.3125 -27.664062 20.34375 -28.390625 17.875 -28.390625 C 15.75 -28.390625 13.914062 -27.859375 12.375 -26.796875 C 10.84375 -25.742188 9.878906 -24.195312 9.484375 -22.15625 L 3.90625 -22.15625 C 4.113281 -24.5 4.898438 -26.472656 6.265625 -28.078125 C 7.628906 -29.679688 9.328125 -30.90625 11.359375 -31.75 C 13.398438 -32.59375 15.570312 -33.015625 17.875 -33.015625 C 22.375 -33.015625 25.757812 -31.8125 28.03125 -29.40625 C 30.3125 -27 31.453125 -23.800781 31.453125 -19.8125 L 31.453125 0 L 26.578125 0 L 26.25 -5.78125 C 25.34375 -3.957031 24.007812 -2.40625 22.25 -1.125 C 20.5 0.144531 18.148438 0.78125 15.203125 0.78125 Z M 16.046875 -3.828125 C 18.128906 -3.828125 19.914062 -4.367188 21.40625 -5.453125 C 22.90625 -6.535156 24.046875 -7.941406 24.828125 -9.671875 C 25.609375 -11.410156 26 -13.234375 26 -15.140625 L 26 -15.203125 L 17.734375 -15.203125 C 14.535156 -15.203125 12.273438 -14.648438 10.953125 -13.546875 C 9.628906 -12.441406 8.96875 -11.066406 8.96875 -9.421875 C 8.96875 -7.734375 9.582031 -6.378906 10.8125 -5.359375 C 12.050781 -4.335938 13.796875 -3.828125 16.046875 -3.828125 Z M 16.046875 -3.828125 "/></g></g></g><g fill="#0b0f8f" fill-opacity="1"><g transform="translate(151.470563, 58.933221)"><g><path d="M 4.484375 0 L 4.484375 -32.234375 L 9.421875 -32.234375 L 9.8125 -27.546875 C 10.851562 -29.285156 12.238281 -30.628906 13.96875 -31.578125 C 15.707031 -32.535156 17.65625 -33.015625 19.8125 -33.015625 C 22.375 -33.015625 24.570312 -32.492188 26.40625 -31.453125 C 28.25 -30.410156 29.671875 -28.828125 30.671875 -26.703125 C 31.796875 -28.660156 33.34375 -30.203125 35.3125 -31.328125 C 37.289062 -32.453125 39.425781 -33.015625 41.71875 -33.015625 C 45.570312 -33.015625 48.644531 -31.851562 50.9375 -29.53125 C 53.238281 -27.21875 54.390625 -23.65625 54.390625 -18.84375 L 54.390625 0 L 49 0 L 49 -18.265625 C 49 -21.597656 48.328125 -24.109375 46.984375 -25.796875 C 45.640625 -27.484375 43.710938 -28.328125 41.203125 -28.328125 C 38.597656 -28.328125 36.441406 -27.320312 34.734375 -25.3125 C 33.023438 -23.300781 32.171875 -20.429688 32.171875 -16.703125 L 32.171875 0 L 26.703125 0 L 26.703125 -18.265625 C 26.703125 -21.597656 26.03125 -24.109375 24.6875 -25.796875 C 23.34375 -27.484375 21.414062 -28.328125 18.90625 -28.328125 C 16.351562 -28.328125 14.21875 -27.320312 12.5 -25.3125 C 10.789062 -23.300781 9.9375 -20.429688 9.9375 -16.703125 L 9.9375 0 Z M 4.484375 0 "/></g></g></g><g fill="#0b0f8f" fill-opacity="1"><g transform="translate(209.615373, 58.933221)"><g><path d="M 19.171875 0.78125 C 16.140625 0.78125 13.410156 0.0859375 10.984375 -1.296875 C 8.554688 -2.679688 6.640625 -4.640625 5.234375 -7.171875 C 3.828125 -9.710938 3.125 -12.691406 3.125 -16.109375 C 3.125 -19.535156 3.835938 -22.515625 5.265625 -25.046875 C 6.691406 -27.585938 8.628906 -29.550781 11.078125 -30.9375 C 13.523438 -32.320312 16.265625 -33.015625 19.296875 -33.015625 C 22.328125 -33.015625 25.054688 -32.320312 27.484375 -30.9375 C 29.910156 -29.550781 31.828125 -27.585938 33.234375 -25.046875 C 34.640625 -22.515625 35.34375 -19.535156 35.34375 -16.109375 C 35.34375 -12.691406 34.628906 -9.710938 33.203125 -7.171875 C 31.773438 -4.640625 29.835938 -2.679688 27.390625 -1.296875 C 24.941406 0.0859375 22.203125 0.78125 19.171875 0.78125 Z M 19.171875 -3.90625 C 21.035156 -3.90625 22.769531 -4.359375 24.375 -5.265625 C 25.976562 -6.171875 27.273438 -7.535156 28.265625 -9.359375 C 29.265625 -11.179688 29.765625 -13.429688 29.765625 -16.109375 C 29.765625 -18.796875 29.273438 -21.050781 28.296875 -22.875 C 27.328125 -24.695312 26.039062 -26.0625 24.4375 -26.96875 C 22.832031 -27.875 21.117188 -28.328125 19.296875 -28.328125 C 17.429688 -28.328125 15.695312 -27.875 14.09375 -26.96875 C 12.5 -26.0625 11.203125 -24.695312 10.203125 -22.875 C 9.203125 -21.050781 8.703125 -18.796875 8.703125 -16.109375 C 8.703125 -13.429688 9.203125 -11.179688 10.203125 -9.359375 C 11.203125 -7.535156 12.488281 -6.171875 14.0625 -5.265625 C 15.644531 -4.359375 17.347656 -3.90625 19.171875 -3.90625 Z M 19.171875 -3.90625 "/></g></g></g></svg>