<svg xmlns="http://www.w3.org/2000/svg" xmlns:xlink="http://www.w3.org/1999/xlink" width="500" zoomAndPan="magnify" viewBox="0 0 375 374.999991" height="500" preserveAspectRatio="xMidYMid meet" version="1.0"><defs><g/><clipPath id="3d7d6f1160"><path d="M 60.75 154.351562 L 209.476562 154.351562 L 209.476562 234.675781 L 60.75 234.675781 Z M 60.75 154.351562 " clip-rule="nonzero"/></clipPath></defs><g clip-path="url(#3d7d6f1160)"><path fill="#0b0f8f" d="M 60.75 154.351562 L 209.191406 154.351562 L 209.191406 234.28125 L 60.75 234.28125 Z M 60.75 154.351562 " fill-opacity="1" fill-rule="nonzero"/></g><g fill="#ffffff" fill-opacity="1"><g transform="translate(60.733121, 211.517974)"><g><path d="M 17.421875 0.8125 C 13.429688 0.8125 10.113281 -0.195312 7.46875 -2.21875 C 4.820312 -4.238281 3.273438 -6.972656 2.828125 -10.421875 L 8.609375 -10.421875 C 8.960938 -8.671875 9.890625 -7.15625 11.390625 -5.875 C 12.898438 -4.601562 14.929688 -3.96875 17.484375 -3.96875 C 19.859375 -3.96875 21.601562 -4.472656 22.71875 -5.484375 C 23.84375 -6.492188 24.40625 -7.691406 24.40625 -9.078125 C 24.40625 -11.097656 23.675781 -12.441406 22.21875 -13.109375 C 20.769531 -13.785156 18.722656 -14.390625 16.078125 -14.921875 C 14.273438 -15.285156 12.476562 -15.800781 10.6875 -16.46875 C 8.894531 -17.144531 7.394531 -18.097656 6.1875 -19.328125 C 4.976562 -20.566406 4.375 -22.191406 4.375 -24.203125 C 4.375 -27.117188 5.457031 -29.503906 7.625 -31.359375 C 9.800781 -33.222656 12.75 -34.15625 16.46875 -34.15625 C 20.007812 -34.15625 22.910156 -33.269531 25.171875 -31.5 C 27.441406 -29.726562 28.757812 -27.207031 29.125 -23.9375 L 23.53125 -23.9375 C 23.3125 -25.644531 22.582031 -26.976562 21.34375 -27.9375 C 20.113281 -28.90625 18.46875 -29.390625 16.40625 -29.390625 C 14.382812 -29.390625 12.828125 -28.960938 11.734375 -28.109375 C 10.640625 -27.253906 10.09375 -26.132812 10.09375 -24.75 C 10.09375 -23.40625 10.796875 -22.347656 12.203125 -21.578125 C 13.617188 -20.816406 15.535156 -20.171875 17.953125 -19.640625 C 20.015625 -19.191406 21.972656 -18.640625 23.828125 -17.984375 C 25.691406 -17.335938 27.21875 -16.375 28.40625 -15.09375 C 29.59375 -13.820312 30.1875 -11.972656 30.1875 -9.546875 C 30.238281 -6.546875 29.109375 -4.066406 26.796875 -2.109375 C 24.484375 -0.160156 21.359375 0.8125 17.421875 0.8125 Z M 17.421875 0.8125 "/></g></g></g><g fill="#ffffff" fill-opacity="1"><g transform="translate(94.354247, 211.517974)"><g><path d="M 8.265625 14.796875 L 16.546875 -3.234375 L 14.59375 -3.234375 L 1.34375 -33.359375 L 7.46875 -33.359375 L 18.5 -7.390625 L 30.1875 -33.359375 L 36.046875 -33.359375 L 14.1875 14.796875 Z M 8.265625 14.796875 "/></g></g></g><g fill="#ffffff" fill-opacity="1"><g transform="translate(131.740948, 211.517974)"><g><path d="M 19.765625 0.8125 C 16.453125 0.8125 13.550781 0.0507812 11.0625 -1.46875 C 8.570312 -3 6.644531 -5.085938 5.28125 -7.734375 C 3.914062 -10.378906 3.234375 -13.382812 3.234375 -16.75 C 3.234375 -20.101562 3.925781 -23.09375 5.3125 -25.71875 C 6.695312 -28.34375 8.625 -30.40625 11.09375 -31.90625 C 13.5625 -33.40625 16.476562 -34.15625 19.84375 -34.15625 C 22.570312 -34.15625 24.988281 -33.59375 27.09375 -32.46875 C 29.207031 -31.351562 30.847656 -29.789062 32.015625 -27.78125 L 32.015625 -48.421875 L 37.65625 -48.421875 L 37.65625 0 L 32.546875 0 L 32.015625 -5.515625 C 30.929688 -3.898438 29.378906 -2.441406 27.359375 -1.140625 C 25.347656 0.160156 22.816406 0.8125 19.765625 0.8125 Z M 20.375 -4.109375 C 22.613281 -4.109375 24.597656 -4.632812 26.328125 -5.6875 C 28.054688 -6.738281 29.398438 -8.203125 30.359375 -10.078125 C 31.328125 -11.960938 31.8125 -14.160156 31.8125 -16.671875 C 31.8125 -19.179688 31.328125 -21.378906 30.359375 -23.265625 C 29.398438 -25.148438 28.054688 -26.617188 26.328125 -27.671875 C 24.597656 -28.722656 22.613281 -29.25 20.375 -29.25 C 18.175781 -29.25 16.210938 -28.722656 14.484375 -27.671875 C 12.765625 -26.617188 11.421875 -25.148438 10.453125 -23.265625 C 9.492188 -21.378906 9.015625 -19.179688 9.015625 -16.671875 C 9.015625 -14.160156 9.492188 -11.960938 10.453125 -10.078125 C 11.421875 -8.203125 12.765625 -6.738281 14.484375 -5.6875 C 16.210938 -4.632812 18.175781 -4.109375 20.375 -4.109375 Z M 20.375 -4.109375 "/></g></g></g><g fill="#ffffff" fill-opacity="1"><g transform="translate(173.969084, 211.517974)"><g><path d="M 15.734375 0.8125 C 12.953125 0.8125 10.640625 0.34375 8.796875 -0.59375 C 6.960938 -1.539062 5.597656 -2.796875 4.703125 -4.359375 C 3.804688 -5.929688 3.359375 -7.640625 3.359375 -9.484375 C 3.359375 -12.890625 4.65625 -15.507812 7.25 -17.34375 C 9.851562 -19.1875 13.398438 -20.109375 17.890625 -20.109375 L 26.90625 -20.109375 L 26.90625 -20.515625 C 26.90625 -23.421875 26.140625 -25.625 24.609375 -27.125 C 23.085938 -28.632812 21.050781 -29.390625 18.5 -29.390625 C 16.300781 -29.390625 14.40625 -28.835938 12.8125 -27.734375 C 11.21875 -26.640625 10.21875 -25.039062 9.8125 -22.9375 L 4.03125 -22.9375 C 4.257812 -25.351562 5.078125 -27.390625 6.484375 -29.046875 C 7.898438 -30.710938 9.660156 -31.976562 11.765625 -32.84375 C 13.867188 -33.71875 16.113281 -34.15625 18.5 -34.15625 C 23.15625 -34.15625 26.660156 -32.910156 29.015625 -30.421875 C 31.367188 -27.941406 32.546875 -24.640625 32.546875 -20.515625 L 32.546875 0 L 27.5 0 L 27.171875 -5.984375 C 26.222656 -4.097656 24.84375 -2.492188 23.03125 -1.171875 C 21.21875 0.148438 18.785156 0.8125 15.734375 0.8125 Z M 16.609375 -3.96875 C 18.765625 -3.96875 20.613281 -4.523438 22.15625 -5.640625 C 23.707031 -6.765625 24.882812 -8.222656 25.6875 -10.015625 C 26.5 -11.804688 26.90625 -13.691406 26.90625 -15.671875 L 26.90625 -15.734375 L 18.359375 -15.734375 C 15.035156 -15.734375 12.691406 -15.160156 11.328125 -14.015625 C 9.960938 -12.878906 9.28125 -11.457031 9.28125 -9.75 C 9.28125 -8 9.914062 -6.597656 11.1875 -5.546875 C 12.46875 -4.492188 14.273438 -3.96875 16.609375 -3.96875 Z M 16.609375 -3.96875 "/></g></g></g><g fill="#0b0f8f" fill-opacity="1"><g transform="translate(210.346396, 211.517974)"><g><path d="M 4.640625 0 L 4.640625 -33.359375 L 9.75 -33.359375 L 10.15625 -28.515625 C 11.226562 -30.304688 12.660156 -31.691406 14.453125 -32.671875 C 16.253906 -33.660156 18.273438 -34.15625 20.515625 -34.15625 C 23.160156 -34.15625 25.429688 -33.617188 27.328125 -32.546875 C 29.234375 -31.472656 30.703125 -29.835938 31.734375 -27.640625 C 32.898438 -29.660156 34.503906 -31.25 36.546875 -32.40625 C 38.585938 -33.570312 40.796875 -34.15625 43.171875 -34.15625 C 47.160156 -34.15625 50.34375 -32.957031 52.71875 -30.5625 C 55.09375 -28.164062 56.28125 -24.476562 56.28125 -19.5 L 56.28125 0 L 50.703125 0 L 50.703125 -18.890625 C 50.703125 -22.347656 50.003906 -24.953125 48.609375 -26.703125 C 47.222656 -28.453125 45.234375 -29.328125 42.640625 -29.328125 C 39.941406 -29.328125 37.707031 -28.28125 35.9375 -26.1875 C 34.164062 -24.101562 33.28125 -21.132812 33.28125 -17.28125 L 33.28125 0 L 27.640625 0 L 27.640625 -18.890625 C 27.640625 -22.347656 26.941406 -24.953125 25.546875 -26.703125 C 24.160156 -28.453125 22.164062 -29.328125 19.5625 -29.328125 C 16.925781 -29.328125 14.722656 -28.28125 12.953125 -26.1875 C 11.179688 -24.101562 10.296875 -21.132812 10.296875 -17.28125 L 10.296875 0 Z M 4.640625 0 "/></g></g></g><g fill="#0b0f8f" fill-opacity="1"><g transform="translate(270.528217, 211.517974)"><g><path d="M 19.84375 0.8125 C 16.695312 0.8125 13.867188 0.09375 11.359375 -1.34375 C 8.847656 -2.78125 6.863281 -4.804688 5.40625 -7.421875 C 3.957031 -10.046875 3.234375 -13.128906 3.234375 -16.671875 C 3.234375 -20.210938 3.972656 -23.296875 5.453125 -25.921875 C 6.929688 -28.546875 8.9375 -30.570312 11.46875 -32 C 14 -33.4375 16.832031 -34.15625 19.96875 -34.15625 C 23.113281 -34.15625 25.941406 -33.4375 28.453125 -32 C 30.960938 -30.570312 32.941406 -28.546875 34.390625 -25.921875 C 35.847656 -23.296875 36.578125 -20.210938 36.578125 -16.671875 C 36.578125 -13.128906 35.835938 -10.046875 34.359375 -7.421875 C 32.878906 -4.804688 30.875 -2.78125 28.34375 -1.34375 C 25.8125 0.09375 22.976562 0.8125 19.84375 0.8125 Z M 19.84375 -4.03125 C 21.769531 -4.03125 23.5625 -4.5 25.21875 -5.4375 C 26.875 -6.382812 28.21875 -7.800781 29.25 -9.6875 C 30.28125 -11.570312 30.796875 -13.898438 30.796875 -16.671875 C 30.796875 -19.453125 30.289062 -21.785156 29.28125 -23.671875 C 28.28125 -25.554688 26.945312 -26.96875 25.28125 -27.90625 C 23.625 -28.851562 21.851562 -29.328125 19.96875 -29.328125 C 18.039062 -29.328125 16.25 -28.851562 14.59375 -27.90625 C 12.9375 -26.96875 11.59375 -25.554688 10.5625 -23.671875 C 9.53125 -21.785156 9.015625 -19.453125 9.015625 -16.671875 C 9.015625 -13.898438 9.53125 -11.570312 10.5625 -9.6875 C 11.59375 -7.800781 12.925781 -6.382812 14.5625 -5.4375 C 16.195312 -4.5 17.957031 -4.03125 19.84375 -4.03125 Z M 19.84375 -4.03125 "/></g></g></g></svg>