<?xml version="1.0" standalone="no"?>
<!DOCTYPE svg PUBLIC "-//W3C//DTD SVG 20010904//EN"
 "http://www.w3.org/TR/2001/REC-SVG-20010904/DTD/svg10.dtd">
<svg version="1.0" xmlns="http://www.w3.org/2000/svg"
 width="512.000000pt" height="512.000000pt" viewBox="0 0 512.000000 512.000000"
 preserveAspectRatio="xMidYMid meet">

<g transform="translate(0.000000,512.000000) scale(0.100000,-0.100000)"
fill="#000000" stroke="none">
<path d="M1070 5005 c-144 -41 -252 -129 -318 -261 -12 -23 -163 -607 -336
-1298 l-316 -1258 0 -831 c0 -689 3 -841 15 -886 46 -176 180 -310 356 -356
81 -22 4097 -22 4178 0 176 46 310 180 356 356 12 45 15 196 15 882 l0 827
-316 1262 c-255 1024 -321 1274 -347 1323 -61 114 -178 206 -308 240 -76 21
-2909 20 -2979 0z m2950 -196 c61 -19 130 -78 162 -139 21 -41 104 -355 318
-1217 160 -640 290 -1170 290 -1178 0 -13 -57 -15 -463 -15 -516 0 -523 -1
-651 -68 -88 -45 -200 -155 -238 -232 -15 -30 -47 -99 -72 -152 -52 -114 -87
-167 -167 -252 -109 -116 -264 -207 -434 -252 -97 -25 -312 -26 -409 0 -211
56 -396 179 -512 342 -25 34 -65 106 -89 160 -83 181 -100 208 -170 279 -46
47 -94 83 -141 108 -128 66 -136 67 -651 67 -406 0 -463 2 -463 15 0 8 130
538 290 1178 214 862 297 1176 318 1217 30 58 100 120 156 138 46 15 2876 16
2926 1z m-2778 -2750 c144 -30 241 -120 309 -284 131 -321 388 -555 713 -649
361 -105 754 -10 1035 250 119 110 205 239 276 413 51 122 108 186 213 238
l76 38 478 3 478 3 0 -769 c0 -878 5 -829 -84 -918 -93 -92 120 -84 -2176 -84
-2296 0 -2083 -8 -2176 84 -89 89 -84 40 -84 918 l0 768 445 0 c286 0 463 -4
497 -11z"/>
</g>
</svg>
